<svg xmlns="http://www.w3.org/2000/svg" width="96" height="48"><g fill="#216778"><g aria-label="MARQUE" style="line-height:1.25;-inkscape-font-specification:Antonio" font-weight="700" font-size="32" font-family="Antonio" letter-spacing="0" word-spacing="0" font-stretch="ultra-condensed"><path d="M.828 40.018v-27.5h5.203l3.906 20.094 3.672-20.094h5.235v27.5h-3.735v-10.25l.157-9.406-3.703 19.53H8.234l-3.859-19.53.156 9.406v10.25zM30.39 31.752L28.548 17.94h-.063l-1.687 13.812zm-8.624 8.266l3.922-27.5h5.53l4.173 27.5h-3.907l-.656-4.906h-4.437l-.594 4.906zM43.797 27.096l-1.344-.063v12.985h-4.187v-27.5h6.922q2.156 0 3.218.875 1.063.86 1.39 2.422.345 1.547.345 4.062 0 2.5-.532 3.813-.53 1.312-1.968 1.765 1.422.25 1.984 1.922.563 1.672.563 6.969 0 5.281.156 5.672h-4.188Q46 39.705 46 30.158q0-1.828-.437-2.421-.438-.61-1.766-.641zm-1.328-3.313h1.672q.797 0 1.172-.359.39-.36.53-1.234.157-.875.157-2.672v-.172q0-2.234-.375-2.922-.375-.687-1.734-.687h-1.422zM65.89 32.33q0 5.985-3.187 7.453l2.563 3-2.063 1.797-3.922-4.265q-2.734-.172-4.14-2.063-1.407-1.906-1.407-5.922V19.752q0-7.562 6.172-7.562 3.188 0 4.578 1.922 1.407 1.921 1.407 5.64zm-7.937.047q0 2.422.36 3.375.375.953 1.515.953t1.5-.968q.36-.985.36-3.36V19.565q0-1.953-.375-2.844-.36-.906-1.438-.906-1.062 0-1.5.906-.422.89-.422 2.828zM81.797 32.955q0 3.797-1.438 5.594-1.437 1.781-4.625 1.781-3.171 0-4.625-1.797-1.437-1.796-1.437-5.578V12.502h4.187v20.375q0 2.172.204 2.64.203.47.484.86.297.375 1.203.375.906 0 1.297-.531.39-.531.469-1.313.093-.796.093-2.03V12.501h4.188zM85.766 40.018v-27.5h9.218v3.61h-5.03v8h4.78v3.53h-4.78v8.75h5.218v3.61z" style="-inkscape-font-specification:'Antonio Bold Ultra-Condensed'"/></g><path d="M75.692 11.193l-1.213-2.792-2.99.33 1.777-2.463-1.776-2.462 2.989.33 1.213-2.793 1.213 2.792 2.989-.33-1.776 2.463 1.776 2.463-2.989-.33z"/></g></svg>