<?xml version="1.0" encoding="UTF-8" standalone="no"?>
<!-- Created with Inkscape (http://www.inkscape.org/) -->

<svg
   xmlns:dc="http://purl.org/dc/elements/1.1/"
   xmlns:cc="http://creativecommons.org/ns#"
   xmlns:rdf="http://www.w3.org/1999/02/22-rdf-syntax-ns#"
   xmlns:svg="http://www.w3.org/2000/svg"
   xmlns="http://www.w3.org/2000/svg"
   xmlns:sodipodi="http://sodipodi.sourceforge.net/DTD/sodipodi-0.dtd"
   xmlns:inkscape="http://www.inkscape.org/namespaces/inkscape"
   width="96"
   height="48"
   viewBox="0 0 96 48"
   version="1.1"
   id="svg16"
   inkscape:version="0.92.3 (2405546, 2018-03-11)"
   sodipodi:docname="icon-marque-02.svg">
  <defs
     id="defs10" />
  <sodipodi:namedview
     id="base"
     pagecolor="#ffffff"
     bordercolor="#666666"
     borderopacity="1.0"
     inkscape:pageopacity="0.0"
     inkscape:pageshadow="2"
     inkscape:zoom="5.6"
     inkscape:cx="29.082408"
     inkscape:cy="47.073742"
     inkscape:document-units="px"
     inkscape:current-layer="layer1"
     showgrid="false"
     units="px"
     inkscape:window-width="1920"
     inkscape:window-height="1019"
     inkscape:window-x="0"
     inkscape:window-y="0"
     inkscape:window-maximized="1"
     showguides="true"
     inkscape:guide-bbox="true"
     inkscape:snap-smooth-nodes="true"
     inkscape:object-nodes="false">
    <sodipodi:guide
       position="69.642857,15.044643"
       orientation="1,0"
       id="guide58"
       inkscape:locked="false" />
    <sodipodi:guide
       position="81.741072,10.044643"
       orientation="1,0"
       id="guide60"
       inkscape:locked="false" />
  </sodipodi:namedview>
  <metadata
     id="metadata13">
    <rdf:RDF>
      <cc:Work
         rdf:about="">
        <dc:format>image/svg+xml</dc:format>
        <dc:type
           rdf:resource="http://purl.org/dc/dcmitype/StillImage" />
        <dc:title></dc:title>
      </cc:Work>
    </rdf:RDF>
  </metadata>
  <g
     inkscape:label="Layer 1"
     inkscape:groupmode="layer"
     id="layer1"
     transform="translate(0,-284.29998)">
    <g
       aria-label="MARQUE"
       style="font-style:normal;font-variant:normal;font-weight:normal;font-stretch:normal;font-size:21.33333397px;line-height:1.25;font-family:Antonio;-inkscape-font-specification:Antonio;letter-spacing:0px;word-spacing:0px;fill:#d7eef4;fill-opacity:1;stroke:none"
       id="text43"
       transform="translate(0.17857123,48.135037)">
      <path
         d="m 0.64955354,276.1828 v -27.5 H 5.8526785 l 3.90625,20.09375 3.6718755,-20.09375 h 5.234375 v 27.5 h -3.734375 v -10.25 l 0.15625,-9.40625 -3.703125,19.53125 H 8.0558035 l -3.859375,-19.53125 0.15625,9.40625 v 10.25 z"
         style="font-style:normal;font-variant:normal;font-weight:bold;font-stretch:ultra-condensed;font-size:32px;font-family:Antonio;-inkscape-font-specification:'Antonio Bold Ultra-Condensed';fill:#d7eef4"
         id="path3806"
         inkscape:connector-curvature="0" />
      <path
         d="m 30.212054,267.91718 -1.84375,-13.8125 h -0.0625 l -1.6875,13.8125 z m -8.625,8.26562 3.921875,-27.5 h 5.53125 l 4.171875,27.5 h -3.90625 l -0.65625,-4.90625 h -4.4375 l -0.59375,4.90625 z"
         style="font-style:normal;font-variant:normal;font-weight:bold;font-stretch:ultra-condensed;font-size:32px;font-family:Antonio;-inkscape-font-specification:'Antonio Bold Ultra-Condensed';fill:#d7eef4"
         id="path3808"
         inkscape:connector-curvature="0" />
      <path
         d="m 43.618304,263.26093 -1.34375,-0.0625 v 12.98437 h -4.1875 v -27.5 h 6.921875 q 2.15625,0 3.21875,0.875 1.0625,0.85938 1.390625,2.42188 0.34375,1.54687 0.34375,4.0625 0,2.5 -0.53125,3.8125 -0.53125,1.3125 -1.96875,1.76562 1.421875,0.25 1.984375,1.92188 0.5625,1.67187 0.5625,6.96875 0,5.28125 0.15625,5.67187 h -4.1875 q -0.15625,-0.3125 -0.15625,-9.85937 0,-1.82813 -0.4375,-2.42188 -0.4375,-0.60937 -1.765625,-0.64062 z m -1.328125,-3.3125 h 1.671875 q 0.796875,0 1.171875,-0.35938 0.390625,-0.35937 0.53125,-1.23437 0.15625,-0.875 0.15625,-2.67188 v -0.17187 q 0,-2.23438 -0.375,-2.92188 -0.375,-0.6875 -1.734375,-0.6875 h -1.421875 z"
         style="font-style:normal;font-variant:normal;font-weight:bold;font-stretch:ultra-condensed;font-size:32px;font-family:Antonio;-inkscape-font-specification:'Antonio Bold Ultra-Condensed';fill:#d7eef4"
         id="path3810"
         inkscape:connector-curvature="0" />
      <path
         d="m 65.712054,268.4953 q 0,5.98438 -3.1875,7.45313 l 2.5625,3 -2.0625,1.79687 -3.921875,-4.26562 q -2.734375,-0.17188 -4.140625,-2.0625 -1.40625,-1.90625 -1.40625,-5.92188 v -12.57812 q 0,-7.5625 6.171875,-7.5625 3.1875,0 4.578125,1.92187 1.40625,1.92188 1.40625,5.64063 z m -7.9375,0.0469 q 0,2.42187 0.359375,3.375 0.375,0.95312 1.515625,0.95312 1.140625,0 1.5,-0.96875 0.359375,-0.98437 0.359375,-3.35937 v -12.8125 q 0,-1.95313 -0.375,-2.84375 -0.359375,-0.90625 -1.4375,-0.90625 -1.0625,0 -1.5,0.90625 -0.421875,0.89062 -0.421875,2.82812 z"
         style="font-style:normal;font-variant:normal;font-weight:bold;font-stretch:ultra-condensed;font-size:32px;font-family:Antonio;-inkscape-font-specification:'Antonio Bold Ultra-Condensed';fill:#d7eef4"
         id="path3812"
         inkscape:connector-curvature="0" />
      <path
         d="m 81.618304,269.1203 q 0,3.79688 -1.4375,5.59375 -1.4375,1.78125 -4.625,1.78125 -3.171875,0 -4.625,-1.79687 -1.4375,-1.79688 -1.4375,-5.57813 v -20.45312 h 4.1875 v 20.375 q 0,2.17187 0.203125,2.64062 0.203125,0.46875 0.484375,0.85938 0.296875,0.375 1.203125,0.375 0.90625,0 1.296875,-0.53125 0.390625,-0.53125 0.46875,-1.3125 0.09375,-0.79688 0.09375,-2.03125 v -20.375 h 4.1875 z"
         style="font-style:normal;font-variant:normal;font-weight:bold;font-stretch:ultra-condensed;font-size:32px;font-family:Antonio;-inkscape-font-specification:'Antonio Bold Ultra-Condensed';fill:#d7eef4"
         id="path3814"
         inkscape:connector-curvature="0" />
      <path
         d="m 85.587054,276.1828 v -27.5 h 9.21875 v 3.60938 h -5.03125 v 8 h 4.78125 v 3.53125 h -4.78125 v 8.75 h 5.21875 v 3.60937 z"
         style="font-style:normal;font-variant:normal;font-weight:bold;font-stretch:ultra-condensed;font-size:32px;font-family:Antonio;-inkscape-font-specification:'Antonio Bold Ultra-Condensed';fill:#d7eef4"
         id="path3816"
         inkscape:connector-curvature="0" />
    </g>
    <path
       sodipodi:type="star"
       style="fill:#d7eef4;fill-opacity:1"
       id="path3834"
       sodipodi:sides="6"
       sodipodi:cx="75.89286"
       sodipodi:cy="287.12143"
       sodipodi:r1="8.5100574"
       sodipodi:r2="4.2550287"
       sodipodi:arg1="1.5707963"
       sodipodi:arg2="2.0943951"
       inkscape:flatsided="false"
       inkscape:rounded="0"
       inkscape:randomized="0"
       d="m 75.892861,295.63149 -2.127515,-4.8251 -5.242411,0.57007 3.114897,-4.25503 -3.114898,-4.25503 5.242412,0.57007 2.127514,-4.8251 2.127515,4.8251 5.242411,-0.57007 -3.114897,4.25503 3.114897,4.25503 -5.242411,-0.57007 z"
       inkscape:transform-center-y="0.47029204"
       transform="matrix(0.57016352,0,0,0.57872235,32.420628,124.40446)" />
  </g>
</svg>
